HIERARCHY
ROOT Hips
{
    OFFSET   0.000000   0.000000   0.000000
    CHANNELS 6 Xposition Yposition Zposition Zrotation Xrotation Yrotation
    JOINT Chest
    {
        OFFSET   0.000000   8.007230   0.000000
        CHANNELS 3 Zrotation Xrotation Yrotation
        JOINT Chest2
        {
            OFFSET   0.000000  22.077100   0.000000
            CHANNELS 3 Zrotation Xrotation Yrotation
            JOINT Neck
            {
                OFFSET   0.000000  23.254800  -0.000021
                CHANNELS 3 Zrotation Xrotation Yrotation
                JOINT Head
                {
                    OFFSET   0.000000  14.370000   1.956610
                    CHANNELS 3 Zrotation Xrotation Yrotation
                    End Site
                    {
                        OFFSET   0.000000  19.566000   0.000000
                    }
                }
            }
            JOINT LeftCollar
            {
                OFFSET   3.911900  19.017000  -0.467063
                CHANNELS 3 Zrotation Xrotation Yrotation
                JOINT LeftShoulder
                {
                    OFFSET  10.383700   0.000000   0.000000
                    CHANNELS 3 Zrotation Xrotation Yrotation
                    JOINT LeftElbow
                    {
                        OFFSET  26.662100   0.001529   0.000325
                        CHANNELS 3 Zrotation Xrotation Yrotation
                        JOINT LeftWrist
                        {
                            OFFSET  28.869000  -0.000011  -0.000096
                            CHANNELS 3 Zrotation Xrotation Yrotation
                            JOINT LeftFinger0
                            {
                                OFFSET   2.044650  -2.323460   3.252850
                                CHANNELS 3 Zrotation Xrotation Yrotation
                                JOINT LeftFinger01
                                {
                                    OFFSET   3.088130   0.000000   0.000000
                                    CHANNELS 3 Zrotation Xrotation Yrotation
                                    JOINT LeftFinger02
                                    {
                                        OFFSET   2.639460   0.000000   0.000000
                                        CHANNELS 3 Zrotation Xrotation Yrotation
                                        End Site
                                        {
                                            OFFSET   2.582190   0.000000   0.000000
                                        }
                                    }
                                }
                            }
                            JOINT LeftFinger1
                            {
                                OFFSET   8.364480   0.000000   3.252850
                                CHANNELS 3 Zrotation Xrotation Yrotation
                                JOINT LeftFinger11
                                {
                                    OFFSET   4.646930   0.000000   0.000000
                                    CHANNELS 3 Zrotation Xrotation Yrotation
                                    JOINT LeftFinger12
                                    {
                                        OFFSET   2.323460   0.000000   0.000000
                                        CHANNELS 3 Zrotation Xrotation Yrotation
                                        End Site
                                        {
                                            OFFSET   2.273050   0.000000   0.000000
                                        }
                                    }
                                }
                            }
                            JOINT LeftFinger2
                            {
                                OFFSET   8.364480   0.000016   1.078090
                                CHANNELS 3 Zrotation Xrotation Yrotation
                                JOINT LeftFinger21
                                {
                                    OFFSET   5.111620   0.000000   0.000000
                                    CHANNELS 3 Zrotation Xrotation Yrotation
                                    JOINT LeftFinger22
                                    {
                                        OFFSET   2.788160   0.000017   0.000000
                                        CHANNELS 3 Zrotation Xrotation Yrotation
                                        End Site
                                        {
                                            OFFSET   2.727660   0.000000   0.000000
                                        }
                                    }
                                }
                            }
                            JOINT LeftFinger3
                            {
                                OFFSET   7.899780   0.000015  -1.078090
                                CHANNELS 3 Zrotation Xrotation Yrotation
                                JOINT LeftFinger31
                                {
                                    OFFSET   4.646920   0.000000   0.000000
                                    CHANNELS 3 Zrotation Xrotation Yrotation
                                    JOINT LeftFinger32
                                    {
                                        OFFSET   2.323470   0.000000   0.000000
                                        CHANNELS 3 Zrotation Xrotation Yrotation
                                        End Site
                                        {
                                            OFFSET   2.273050   0.000000   0.000000
                                        }
                                    }
                                }
                            }
                            JOINT LeftFinger4
                            {
                                OFFSET   7.435090   0.000000  -3.252850
                                CHANNELS 3 Zrotation Xrotation Yrotation
                                JOINT LeftFinger41
                                {
                                    OFFSET   3.717550   0.000000   0.000000
                                    CHANNELS 3 Zrotation Xrotation Yrotation
                                    JOINT LeftFinger42
                                    {
                                        OFFSET   1.858760   0.000000   0.000000
                                        CHANNELS 3 Zrotation Xrotation Yrotation
                                        End Site
                                        {
                                            OFFSET   1.818440   0.000000   0.000000
                                        }
                                    }
                                }
                            }
                        }
                    }
                }
            }
            JOINT RightCollar
            {
                OFFSET  -3.911900  19.017000  -0.467062
                CHANNELS 3 Zrotation Xrotation Yrotation
                JOINT RightShoulder
                {
                    OFFSET -10.383700   0.000015   0.000000
                    CHANNELS 3 Zrotation Xrotation Yrotation
                    JOINT RightElbow
                    {
                        OFFSET -26.662100   0.001341   0.000385
                        CHANNELS 3 Zrotation Xrotation Yrotation
                        JOINT RightWrist
                        {
                            OFFSET -28.869000   0.000025  -0.000080
                            CHANNELS 3 Zrotation Xrotation Yrotation
                            JOINT RightFinger0
                            {
                                OFFSET  -2.044650  -2.323490   3.252850
                                CHANNELS 3 Zrotation Xrotation Yrotation
                                JOINT RightFinger01
                                {
                                    OFFSET  -3.088130   0.000000   0.000000
                                    CHANNELS 3 Zrotation Xrotation Yrotation
                                    JOINT RightFinger02
                                    {
                                        OFFSET  -2.639460   0.000000   0.000000
                                        CHANNELS 3 Zrotation Xrotation Yrotation
                                        End Site
                                        {
                                            OFFSET  -2.582190   0.000000   0.000000
                                        }
                                    }
                                }
                            }
                            JOINT RightFinger1
                            {
                                OFFSET  -8.364480   0.000000   3.252850
                                CHANNELS 3 Zrotation Xrotation Yrotation
                                JOINT RightFinger11
                                {
                                    OFFSET  -4.646930   0.000000   0.000000
                                    CHANNELS 3 Zrotation Xrotation Yrotation
                                    JOINT RightFinger12
                                    {
                                        OFFSET  -2.323470   0.000000   0.000000
                                        CHANNELS 3 Zrotation Xrotation Yrotation
                                        End Site
                                        {
                                            OFFSET  -2.273050   0.000000   0.000000
                                        }
                                    }
                                }
                            }
                            JOINT RightFinger2
                            {
                                OFFSET  -8.364480   0.000000   1.078090
                                CHANNELS 3 Zrotation Xrotation Yrotation
                                JOINT RightFinger21
                                {
                                    OFFSET  -5.111610   0.000000   0.000000
                                    CHANNELS 3 Zrotation Xrotation Yrotation
                                    JOINT RightFinger22
                                    {
                                        OFFSET  -2.788160   0.000000   0.000000
                                        CHANNELS 3 Zrotation Xrotation Yrotation
                                        End Site
                                        {
                                            OFFSET  -2.727660   0.000000   0.000000
                                        }
                                    }
                                }
                            }
                            JOINT RightFinger3
                            {
                                OFFSET  -7.899780   0.000000  -1.078090
                                CHANNELS 3 Zrotation Xrotation Yrotation
                                JOINT RightFinger31
                                {
                                    OFFSET  -4.646920   0.000000   0.000000
                                    CHANNELS 3 Zrotation Xrotation Yrotation
                                    JOINT RightFinger32
                                    {
                                        OFFSET  -2.323470   0.000000   0.000000
                                        CHANNELS 3 Zrotation Xrotation Yrotation
                                        End Site
                                        {
                                            OFFSET  -2.273050   0.000000   0.000000
                                        }
                                    }
                                }
                            }
                            JOINT RightFinger4
                            {
                                OFFSET  -7.435090   0.000000  -3.252850
                                CHANNELS 3 Zrotation Xrotation Yrotation
                                JOINT RightFinger41
                                {
                                    OFFSET  -3.717550   0.000000   0.000000
                                    CHANNELS 3 Zrotation Xrotation Yrotation
                                    JOINT RightFinger42
                                    {
                                        OFFSET  -1.858770   0.000000   0.000000
                                        CHANNELS 3 Zrotation Xrotation Yrotation
                                        End Site
                                        {
                                            OFFSET  -1.818440   0.000000   0.000000
                                        }
                                    }
                                }
                            }
                        }
                    }
                }
            }
        }
    }
    JOINT LeftHip
    {
        OFFSET   9.783010   0.000000   0.000000
        CHANNELS 3 Zrotation Xrotation Yrotation
        JOINT LeftKnee
        {
            OFFSET   0.000070 -41.789100   0.000028
            CHANNELS 3 Zrotation Xrotation Yrotation
            JOINT LeftAnkle
            {
                OFFSET   0.000087 -41.133200  -0.000100
                CHANNELS 3 Zrotation Xrotation Yrotation
                JOINT LeftToe
                {
                    OFFSET   0.000000  -6.358960  14.674500
                    CHANNELS 3 Zrotation Xrotation Yrotation
                    End Site
                    {
                        OFFSET   0.000000   0.000000   3.913200
                    }
                }
            }
        }
    }
    JOINT RightHip
    {
        OFFSET  -9.783020   0.000000   0.000000
        CHANNELS 3 Zrotation Xrotation Yrotation
        JOINT RightKnee
        {
            OFFSET   0.000044 -41.789100  -0.000870
            CHANNELS 3 Zrotation Xrotation Yrotation
            JOINT RightAnkle
            {
                OFFSET  -0.000090 -41.133200  -0.000245
                CHANNELS 3 Zrotation Xrotation Yrotation
                JOINT RightToe
                {
                    OFFSET   0.000000  -6.358960  14.674500
                    CHANNELS 3 Zrotation Xrotation Yrotation
                    End Site
                    {
                        OFFSET   0.000000   0.000000   3.913200
                    }
                }
            }
        }
    }
}
MOTION
Frames: 5
Frame Time:   0.016667
  2.346840  89.555400  -1.029620  -3.976340 -21.344000   1.883340   0.141068  12.534100   4.477370  -0.778840  25.039100   9.268310   2.944700  -0.199369   0.010948   4.837500  -0.401058  -8.551470  -6.643460  -6.678290  -3.645350 -67.912400  24.299600  -3.634050  -2.026120  -3.153710 -20.452200  17.388600 -15.342800   9.596370  42.669100  36.106900 -64.477900 -29.721100  -0.004086   0.007835  -9.861460  -0.007647   0.001965 -28.240400   4.766430  -8.793820 -23.403300  -0.002018  -0.002878 -16.382300  -0.000630  -0.002026 -28.256100  -0.382449   0.711506 -33.868200  -0.002813  -0.004836 -22.556200  -0.001421  -0.003052 -27.921900  -0.378282   0.713726 -31.517000  -0.003934  -0.005219 -20.990300  -0.002309  -0.003459 -27.464400  -0.372661   0.716642 -41.200100  -0.007453  -0.005509 -27.439300  -0.004121  -0.006336  11.732300  -5.702160  10.950800  35.820100   3.021620  40.693300 -36.146800  -0.768801  40.777100 -75.662300  18.520200  33.258300 -53.544900  40.754700  81.255500  11.068400  -0.008104  -0.001886   0.534207  -0.000692  -0.000896  -0.085717   0.007275  -4.847940   0.006683   0.001505  -0.000174   0.004271   0.001271  -0.000270  -1.881650   0.162975  -5.006900  -0.000000   0.002768   0.002045   0.000007   0.002197   0.001228 -11.448600   1.450490  -7.150330  -0.000000   0.003908   0.000586  -0.000000   0.003107   0.000339   3.815200  -0.487091  -7.279790   5.771560   0.007471  -0.009528   3.843880   0.005264  -0.004254   3.593230  22.831200   4.967440   0.914458   0.043992   3.345320  -0.253475  -3.235860   2.224470  -0.000000   0.000000   0.000000   4.930530  20.540200  -6.705650  -2.227540   6.040790 -12.395400   2.236820  -5.874450   1.899830  -0.000000   0.000000   0.000000
  2.396810  89.555100  -1.063740  -3.941870 -21.276400   1.987050   0.156918  12.510800   4.460070  -0.739525  24.994000   9.227300   2.944010  -0.228271   0.011737   4.836890  -0.459571  -8.561840  -6.645050  -6.669970  -3.645160 -67.924200  24.355100  -3.731620  -1.988990  -3.048300 -20.676400  17.476400 -15.251400   9.472400  42.697000  36.121900 -64.461200 -29.719300  -0.004076   0.008417  -9.860690  -0.007878   0.001950 -28.278800   4.767140  -8.782030 -23.436800  -0.001996  -0.002968 -16.405800  -0.000673  -0.002083 -28.262600  -0.391928   0.728935 -33.922300  -0.003036  -0.004836 -22.592300  -0.001554  -0.003183 -27.933200  -0.387737   0.731173 -31.590900  -0.004146  -0.005218 -21.039500  -0.002437  -0.003547 -27.525800  -0.382694   0.733791 -41.292300  -0.007477  -0.005833 -27.500700  -0.004108  -0.006393  11.734700  -5.693700  10.935200  35.748500   3.062570  40.669200 -36.143900  -0.841175  40.722400 -75.563700  18.436600  33.344700 -53.609000  40.862900  81.476300  11.060600  -0.008252  -0.002081   0.530290  -0.000699  -0.001001   0.016796  -0.001807  -4.804730   0.000000   0.001359  -0.000163  -0.000803   0.001170  -0.000257  -1.825410   0.160082  -5.011730  -0.000000   0.002717   0.002013   0.000059   0.002180   0.001213 -11.060700   1.436710  -7.306360  -0.000000   0.004029   0.000487  -0.000000   0.003190   0.000292   3.935140  -0.513972  -7.427280   5.953280   0.007590  -0.009644   3.964890   0.005341  -0.004397   3.584520  22.746700   4.976550   0.890419   0.001993   3.333080  -0.256079  -3.201410   2.135930  -0.000000   0.000000   0.000000   4.893570  20.459400  -6.704900  -2.225190   6.027390 -12.448300   2.248460  -5.839850   1.874120   0.000000   0.000000  -0.000000
  2.440850  89.554800  -1.097710  -3.912650 -21.213700   2.090800   0.173561  12.492400   4.437990  -0.697935  24.958900   9.176450   2.947160  -0.260860   0.012833   4.842780  -0.525007  -8.571360  -6.648840  -6.673360  -3.646230 -67.932500  24.422200  -3.836610  -1.941010  -2.936330 -20.896800  17.552200 -15.220200   9.362980  42.704500  36.131800 -64.443300 -29.727400  -0.004059   0.008985  -9.864200  -0.008103   0.001940 -28.323100   4.763650  -8.758990 -23.471300  -0.001978  -0.003057 -16.429900  -0.000717  -0.002138 -28.271900  -0.409019   0.760465 -33.999800  -0.003250  -0.004837 -22.643900  -0.001682  -0.003311 -27.946800  -0.404692   0.762774 -31.665500  -0.004349  -0.005216 -21.089200  -0.002561  -0.003628 -27.592000  -0.400122   0.765154 -41.391900  -0.007491  -0.006151 -27.567000  -0.004091  -0.006446  11.773100  -5.709010  10.942500  35.736900   2.977470  40.621500 -36.091500  -0.810535  40.770700 -75.419500  18.354000  33.378900 -53.424300  40.776300  81.364500  11.390500  -0.008412  -0.002278   0.695232  -0.000706  -0.001106   0.010184  -0.000336  -4.890690   0.001741   0.001194  -0.000171   0.000517   0.001072  -0.000258  -1.807780   0.163772  -5.129240   0.011676   0.002669   0.001975   0.007829   0.002165   0.001189 -10.518100   1.409980  -7.543670  -0.000000   0.004152   0.000397  -0.000000   0.003284   0.000237   3.967980  -0.532562  -7.654850   6.007300   0.007696  -0.009779   4.000860   0.005385  -0.004542   3.598330  22.616800   4.979160   0.855283   0.067149   3.314840  -0.262170  -3.213220   2.048360  -0.000000   0.000000   0.000000   4.857100  20.389800  -6.701050  -2.217800   6.007560 -12.499300   2.264980  -5.803960   1.841260  -0.000000   0.000000  -0.000000
  2.482110  89.554500  -1.131480  -3.892160 -21.151100   2.181010   0.191161  12.474300   4.415230  -0.654271  24.924600   9.124030   2.952390  -0.292058   0.013880   4.850600  -0.587553  -8.582420  -6.652840  -6.676740  -3.648570 -67.934300  24.517400  -3.958180  -1.891400  -2.871530 -21.117200  17.624800 -15.208200   9.305120  42.712100  36.145300 -64.423200 -29.735800  -0.004048   0.009536  -9.867890  -0.008327   0.001927 -28.360200   4.754820  -8.730200 -23.500900  -0.001959  -0.003142 -16.450600  -0.000758  -0.002193 -28.277800  -0.428940   0.797328 -34.051000  -0.003455  -0.004838 -22.678000  -0.001806  -0.003435 -27.954800  -0.424452   0.799719 -31.729100  -0.004542  -0.005216 -21.131600  -0.002680  -0.003705 -27.652600  -0.420300   0.801890 -41.483300  -0.007495  -0.006459 -27.627900  -0.004069  -0.006493  11.846000  -5.744170  10.961800  35.796000   2.813900  40.531100 -35.999000  -0.752372  40.920800 -75.175700  18.217100  33.369900 -53.109200  40.635300  81.161000  11.990200  -0.008575  -0.002480   0.995105  -0.000714  -0.001214   0.003578   0.001135  -5.053210   0.013931   0.001022  -0.000190   0.009750   0.000968  -0.000260  -1.773310   0.167434  -5.337530   0.023352   0.002619   0.001912   0.015555   0.002149   0.001148  -9.884160   1.378210  -7.837920  -0.000000   0.004274   0.000308  -0.000000   0.003380   0.000181   4.044820  -0.562217  -7.936250   6.128670   0.007783  -0.009859   4.081690   0.005411  -0.004700   3.611050  22.489100   4.990380   0.821120   0.132306   3.302700  -0.268417  -3.225030   1.958640   0.000000   0.000000   0.000000   4.824810  20.322300  -6.692470  -2.208620   5.983980 -12.550500   2.283130  -5.764320   1.821200   0.000000   0.000000   0.000000
  2.522510  89.554300  -1.165190  -3.878050 -21.086900   2.253840   0.209621  12.455800   4.394870  -0.609375  24.889400   9.076400   2.956350  -0.319943   0.014494   4.856430  -0.643650  -8.598060  -6.656890  -6.674890  -3.651420 -67.919900  24.673900  -4.098650  -1.834020  -2.876700 -21.371400  17.680800 -15.198900   9.305930  42.737300  36.174400 -64.409500 -29.736000  -0.004057   0.010065  -9.868010  -0.008554   0.001906 -28.374400   4.744300  -8.704850 -23.512600  -0.001938  -0.003225 -16.458800  -0.000797  -0.002247 -28.277000  -0.444645   0.826586 -34.046500  -0.003654  -0.004837 -22.675000  -0.001926  -0.003555 -27.954200  -0.440066   0.829026 -31.759300  -0.004726  -0.005218 -21.151800  -0.002796  -0.003779 -27.697700  -0.436251   0.831030 -41.551100  -0.007489  -0.006756 -27.673100  -0.004042  -0.006535  11.953100  -5.808270  11.002300  35.960800   2.587120  40.360400 -35.892300  -0.673929  41.206600 -74.685300  18.004500  33.079500 -53.003500  40.505100  80.903900  12.616200  -0.008732  -0.002689   1.308120  -0.000722  -0.001331   0.098182  -0.007650  -5.273520   0.090274   0.000852  -0.000209   0.063481   0.000851  -0.000284  -1.471490   0.145754  -5.601680   0.011676   0.002570   0.001799  -0.070557   0.002128   0.001085  -9.390820   1.360920  -8.188340   0.057349   0.004396   0.000258   0.038191   0.003470   0.000152   4.268930  -0.618715  -8.271080   6.472840   0.007853  -0.009480   4.310920   0.005425  -0.004881   3.609230  22.417000   5.019880   0.796708   0.086119   3.314400  -0.271763  -3.190030   1.857230  -0.000000   0.000000  -0.000000   4.797720  20.253500  -6.670100  -2.203710   5.957690 -12.609700   2.302850  -5.718410   1.822040  -0.000000   0.000000   0.000000
